<?xml version="1.0" encoding="utf-8"?>
<!-- Generator: Adobe Illustrator 23.0.1, SVG Export Plug-In . SVG Version: 6.00 Build 0)  -->
<svg version="1.1" id="Layer_1" xmlns="http://www.w3.org/2000/svg" xmlns:xlink="http://www.w3.org/1999/xlink" x="0px" y="0px"
	 viewBox="0 0 166.6 234.6" style="enable-background:new 0 0 166.6 234.6;" xml:space="preserve">
<style type="text/css">
	.st0{fill:#04D9D9;}
</style>
<title>Personal Logo</title>
<polygon class="st0" points="96.2,44.5 147.7,44.5 147.7,18.8 96.2,18.8 70.4,18.8 18.9,18.8 18.9,44.5 70.4,44.5 70.4,70.3 
	70.4,104.6 44.7,70.3 18.9,70.3 18.9,190.1 18.9,215.9 44.7,215.9 44.7,190.1 44.7,113 70.4,147.3 70.4,164.3 70.4,190.1 
	70.4,215.9 96.2,215.9 96.2,190.1 96.2,181.6 104.7,192.8 122,215.9 147.7,215.9 147.7,190.1 147.7,70.3 122,70.3 122,173.1 
	96.2,138.9 96.2,70.3 "/>
</svg>
