<?xml version="1.0" encoding="utf-8"?>
<!-- Generator: Adobe Illustrator 23.0.1, SVG Export Plug-In . SVG Version: 6.00 Build 0)  -->
<svg version="1.1" id="Layer_1" xmlns="http://www.w3.org/2000/svg" xmlns:xlink="http://www.w3.org/1999/xlink" x="0px" y="0px"
	 viewBox="0 0 598.8 234.6" style="enable-background:new 0 0 598.8 234.6;" xml:space="preserve">
<style type="text/css">
	.st0{fill:#04D9D9;}
</style>
<title>Personal Logo</title>
<polygon class="st0" points="95.2,44.9 146.7,44.9 146.7,19.2 95.2,19.2 69.4,19.2 17.9,19.2 17.9,44.9 69.4,44.9 69.4,70.7 
	69.4,105 43.7,70.7 17.9,70.7 17.9,190.5 17.9,216.3 43.7,216.3 43.7,190.5 43.7,113.4 69.4,147.7 69.4,164.7 69.4,190.5 
	69.4,216.3 95.2,216.3 95.2,190.5 95.2,182 103.7,193.2 121,216.3 146.7,216.3 146.7,190.5 146.7,70.7 121,70.7 121,173.5 
	95.2,139.3 95.2,70.7 "/>
<path class="st0" d="M209.7,89.8c0,0.5,0.2,1.1,0.6,1.5c0.8,0.8,2.1,0.8,2.9,0l0,0c0.4-0.4,0.6-0.9,0.6-1.5V23.3h23.1
	c0.5,0,1-0.2,1.5-0.5c0.4-0.4,0.6-0.9,0.6-1.5c0-0.5-0.2-1-0.6-1.4s-0.9-0.6-1.5-0.6h-50.3c-0.5,0-1.1,0.2-1.5,0.6
	c-0.8,0.7-0.8,1.9-0.1,2.7l0.1,0.1c0.4,0.4,0.9,0.6,1.5,0.6h23.1L209.7,89.8z"/>
<path class="st0" d="M295.5,91.3c0.4-0.4,0.6-0.9,0.6-1.5c0-0.5-0.2-1.1-0.6-1.5c-0.4-0.4-0.9-0.6-1.5-0.6h-36.7V56.5h32.1
	c0.5,0,1.1-0.2,1.5-0.6s0.6-0.9,0.6-1.5c0-1.1-0.9-2-2.1-2.1h-32.1V23.4H294c0.5,0,1.1-0.2,1.5-0.6s0.6-0.9,0.6-1.5
	c0-0.5-0.2-1.1-0.6-1.4c-0.4-0.4-0.9-0.6-1.5-0.6h-39c-1.1,0-2,0.9-2.1,2.1v68.3c0,1.1,0.9,2,2.1,2.1h39
	C294.6,91.9,295.1,91.7,295.5,91.3z"/>
<path class="st0" d="M313.6,91.8c0.5,0,1-0.2,1.4-0.5s0.6-0.8,0.6-1.2V27.4L362.2,91c0.2,0.3,0.5,0.5,0.8,0.6s0.6,0.2,0.9,0.2
	c0.6,0,1.1-0.2,1.5-0.5c0.5-0.4,0.7-1.1,0.7-1.7V21.3c0-0.5-0.2-1-0.5-1.4c-0.4-0.4-0.9-0.6-1.5-0.6c-0.5,0-1,0.2-1.3,0.6
	c-0.4,0.4-0.6,0.9-0.6,1.4v62.8l-47-64.1c-0.2-0.3-0.4-0.5-0.7-0.6s-0.5-0.2-0.8-0.2c-0.5,0-0.9,0.2-1.2,0.5c-0.5,0.4-0.7,1-0.6,1.6
	v68.6c0,0.5,0.2,0.9,0.5,1.2C312.6,91.7,313.1,91.9,313.6,91.8z"/>
<path class="st0" d="M439.4,56.1h-20.7c-0.5,0-1.1,0.2-1.5,0.6s-0.6,0.9-0.6,1.5c0,1.1,0.9,2.1,2.1,2.1h18.6v22.9
	c-2.6,1.7-5.5,3-8.4,3.9c-9.1,2.8-18.9,1.9-27.2-2.6c-4.9-2.8-8.9-6.8-11.6-11.8c-5.6-10.7-5.6-23.5,0-34.2c2.7-4.9,6.7-9,11.6-11.8
	c5.2-2.9,11.1-4.4,17-4.3c3.3,0,6.5,0.4,9.6,1.4c2.9,0.8,5.7,2,8.4,3.5c0.2,0.1,0.4,0.2,0.6,0.3c0.2,0.1,0.5,0.2,0.7,0.2
	c0.5,0,0.9-0.2,1.2-0.5c0.5-0.4,0.8-0.9,0.7-1.5c0-0.3-0.1-0.7-0.2-1c-0.2-0.3-0.4-0.6-0.7-0.8c-2.9-1.9-6.1-3.3-9.4-4.2
	c-3.6-0.9-7.3-1.4-11-1.4c-5.1-0.1-10.1,0.9-14.8,2.7c-4.4,1.8-8.4,4.4-11.8,7.8c-3.4,3.4-6,7.4-7.8,11.9c-3.7,9.6-3.7,20.2,0,29.8
	c3.5,9,10.6,16.1,19.6,19.6c4.7,1.9,9.8,2.8,14.8,2.7c4,0,8-0.6,11.7-1.9c3.6-1.2,7-2.9,10.2-5c0.3-0.2,0.6-0.6,0.7-0.9
	c0.1-0.3,0.2-0.6,0.2-0.9v-26c0-0.5-0.2-1.1-0.6-1.5C440.5,56.3,440,56.1,439.4,56.1z"/>
<path class="st0" d="M481.9,50l28.7-26.7c0.8-0.8,0.8-2.1,0-2.9c-0.4-0.4-0.9-0.6-1.4-0.6s-1.1,0.2-1.5,0.6l-44.8,41.9V21.6
	c0.1-1.2-0.8-2.2-2-2.3c-1.2-0.1-2.2,0.8-2.3,2c0,0.1,0,0.2,0,0.3v68.1c0,0.6,0.2,1.1,0.6,1.5c0.4,0.4,1,0.7,1.6,0.6
	c0.5,0,1.1-0.2,1.4-0.6c0.4-0.4,0.7-1,0.7-1.5v-22l15.5-14.5l31,38.4c0.3,0.5,0.9,0.7,1.5,0.7c0.5,0,1-0.2,1.5-0.5
	c0.6-0.3,0.9-1,0.9-1.7c0-0.5-0.2-1-0.5-1.5L481.9,50z"/>
<path class="st0" d="M580.3,20c-0.8-0.8-2.1-0.8-3,0l0,0c-0.4,0.4-0.6,0.9-0.6,1.4v44.7c0,4-1,7.9-3.1,11.3c-2,3.4-4.8,6.2-8.1,8.2
	c-7,4.1-15.6,4.1-22.5,0c-3.4-2-6.2-4.8-8.1-8.2c-2-3.4-3-7.4-3-11.3V21.4c0-0.5-0.2-1.1-0.6-1.4c-0.4-0.4-1-0.6-1.6-0.6
	c-1.1-0.1-2.1,0.8-2.2,1.9v0.1v44.7c0,4.7,1.2,9.4,3.6,13.4c2.4,4,5.7,7.3,9.7,9.7c4.1,2.4,8.7,3.7,13.4,3.6
	c4.7,0.1,9.3-1.2,13.4-3.6c4-2.4,7.3-5.7,9.6-9.7c2.4-4,3.7-8.7,3.6-13.4V21.3C580.9,20.9,580.7,20.4,580.3,20z"/>
<path class="st0" d="M243.7,143.6c-0.5,0-1,0.2-1.4,0.6c-0.4,0.4-0.6,0.9-0.6,1.4v62.8l-47-64.1c-0.2-0.3-0.4-0.5-0.7-0.6
	c-0.3-0.1-0.5-0.2-0.8-0.2c-0.5,0-0.9,0.2-1.2,0.5c-0.5,0.4-0.7,1-0.6,1.6v68.7c0,0.5,0.2,0.9,0.5,1.2c0.4,0.4,0.9,0.6,1.5,0.5
	c0.5,0,1-0.2,1.4-0.5s0.6-0.8,0.6-1.2v-62.7l46.6,63.6c0.2,0.3,0.5,0.5,0.8,0.6s0.6,0.2,0.9,0.2c0.6,0,1.1-0.2,1.5-0.6
	c0.5-0.4,0.7-1.1,0.7-1.7v-68.2c0-0.5-0.2-1-0.5-1.4C244.7,143.8,244.2,143.6,243.7,143.6z"/>
<path class="st0" d="M291.6,144.7c-0.1-0.4-0.4-0.8-0.7-1c-0.4-0.3-0.9-0.4-1.3-0.4c-0.4,0-0.8,0.1-1.2,0.3
	c-0.4,0.3-0.7,0.6-0.8,1.1l-27.9,68.6c-0.1,0.3-0.2,0.7-0.1,1c0.1,0.5,0.3,0.9,0.6,1.2c0.4,0.4,1,0.6,1.5,0.5c0.4,0,0.8-0.1,1.1-0.4
	c0.3-0.2,0.6-0.6,0.7-1l8.4-21.1h34.7v-0.2l8.6,21.3c0.1,0.4,0.4,0.8,0.8,1c0.4,0.2,0.8,0.4,1.3,0.4c0.6,0,1.1-0.2,1.5-0.5
	c0.4-0.4,0.7-0.9,0.6-1.5c0-0.3-0.1-0.5-0.2-0.8L291.6,144.7z M273.7,189.5l15.5-39.1l15.8,39.1H273.7z"/>
<path class="st0" d="M335.7,143.6c-1.2,0-2.1,0.9-2.2,2.1v0.1v68.1c0,0.6,0.2,1.1,0.6,1.6c0.4,0.4,1,0.7,1.6,0.6
	c0.5,0,1.1-0.2,1.5-0.6c0.4-0.4,0.7-1,0.7-1.6v-68.1C337.9,144.6,337,143.7,335.7,143.6C335.8,143.6,335.7,143.6,335.7,143.6z"/>
<path class="st0" d="M421.8,143.6c-0.8-0.1-1.6,0.2-2,0.9l-28.7,42.7l-28.6-42.7c-0.2-0.3-0.6-0.6-0.9-0.7c-0.3-0.1-0.7-0.2-1-0.2
	c-0.6,0-1.1,0.2-1.5,0.7c-0.3,0.4-0.5,0.9-0.5,1.4V214c0,0.5,0.2,1.1,0.6,1.5c0.8,0.8,2.1,0.8,2.9,0l0,0c0.4-0.4,0.6-0.9,0.6-1.5
	v-62l26.8,40.5c0.1,0.3,0.4,0.5,0.7,0.6s0.7,0.2,1,0.2s0.6-0.1,0.9-0.2c0.2-0.1,0.4-0.4,0.6-0.6l26.7-40.4V214
	c0,0.5,0.2,1.1,0.6,1.5c0.4,0.4,1,0.6,1.6,0.6s1.1-0.2,1.5-0.6c0.4-0.4,0.7-0.9,0.7-1.5v-68.3c0-0.5-0.2-1-0.5-1.4
	C422.8,143.9,422.3,143.6,421.8,143.6z"/>
</svg>
